# xmcd
#
# Track frame offsets: 
#        150
#        14192
#        22693
#        40630
#        67617
#        81210
#        98609
#        120505
#        141733
#        162084
#
# Disc length: 2374 seconds
#
# Revision: 0
# Processed by: cddbd v1.5.2PL0 Copyright (c) Steve Scherf et al.
# Submitted via: ExactAudioCopy v0.99pb5
#
DISCID=7209440a
DTITLE=Timber Timbre - Creep On Creepin'On
DYEAR=2011
DGENRE=Folk
TTITLE0=01 - Bad Ritual
TTITLE1=02 - Obelisk
TTITLE2=03 - Creep On Creepin'On
TTITLE3=04 - Black Water
TTITLE4=05 - Swamp Magic
TTITLE5=06 - Woman
TTITLE6=07 - Too Old To Die Young
TTITLE7=08 - Lonesome Hunter
TTITLE8=09 - Do I Have Power
TTITLE9=10 - Souvenirs
EXTD=
EXTT0=
EXTT1=
EXTT2=
EXTT3=
EXTT4=
EXTT5=
EXTT6=
EXTT7=
EXTT8=
EXTT9=
PLAYORDER=
